<?xml version="1.0" encoding="utf-8"?>
<!-- Generator: Adobe Illustrator 24.3.0, SVG Export Plug-In . SVG Version: 6.00 Build 0)  -->
<svg version="1.1" id="Layer_1" xmlns="http://www.w3.org/2000/svg" xmlns:xlink="http://www.w3.org/1999/xlink" x="0px" y="0px"
	 viewBox="0 0 512 512" style="enable-background:new 0 0 512 512;" xml:space="preserve">
<style type="text/css">
	.st0{fill:#000B1D;}
	.st1{fill-rule:evenodd;clip-rule:evenodd;fill:#FFFFFF;}
	.st2{fill:#FFFFFF;}
</style>
<g id="Portfolio" transform="translate(2303 664)">
	<path id="Прямоугольник_23" class="st0" d="M-2223.03-664h352.05c44.13,0,79.97,35.84,79.97,79.97v352.05
		c0,44.13-35.84,79.97-79.97,79.97h-352.05c-44.13,0-79.97-35.84-79.97-79.97v-352.05C-2303-628.16-2267.16-664-2223.03-664z"/>
	<path id="Контур_46" class="st1" d="M-2053.04-388.85L-2053.04-388.85c-17,12.29-38.4,18.33-64.2,18.33h-10.85l-3.28-0.2
		v69.43c0,1.43-0.51,2.76-1.64,3.79c-1.02,0.82-2.36,1.33-3.79,1.23h-34.3c-2.56,0.2-4.81-1.84-5.02-4.4c0-0.2,0-0.41,0-0.61V-510.6
		c0-1.23,0.41-2.46,1.13-3.48c0.92-1.02,2.15-1.54,3.48-1.54c13.82-0.41,33.38-0.61,58.37-0.61c28.88,0,50.69,6.66,64.82,20.58
		c14.03,13.21,21.71,31.64,21.3,50.89C-2026.93-420.39-2035.63-401.55-2053.04-388.85z M-2082.43-471.39L-2082.43-471.39
		c-6.96-6.55-17-9.93-30.52-9.93c-8.91,0-14.95,0.1-18.33,0.41v74.75c3.28,0.2,8.6,0.41,16.08,0.41
		c11.26,0.51,22.43-2.56,31.74-8.91c7.68-5.84,11.88-15.36,11.88-29.59C-2071.06-454.39-2074.96-464.32-2082.43-471.39
		L-2082.43-471.39z"/>
	<path id="Контур_47" class="st2" d="M-1929.96-492.28c-3.69,6.14-5.32,13.31-4.81,20.48v12.19h24.47
		c2.56-0.2,4.81,1.84,5.02,4.4c0,0.2,0,0.41,0,0.61v23.96c0,1.33-0.41,2.56-1.23,3.58c-0.92,0.92-2.05,1.54-3.38,1.74h-0.2h-24.68
		v123.6c0.2,2.76-1.84,5.12-4.61,5.32c-0.2,0-0.51,0-0.72,0h-34.3c-2.76,0.2-5.12-1.84-5.32-4.61c0-0.2,0-0.51,0-0.72v-123.7h-16.08
		c-1.43,0-2.76-0.61-3.69-1.74c-0.72-1.02-1.13-2.36-1.02-3.58v-23.96c0-1.23,0.41-2.46,1.13-3.48c0.92-1.02,2.15-1.54,3.58-1.54
		h16.08v-8.91c-0.51-13,2.15-26.01,7.78-37.79c4.3-9.22,11.16-16.9,19.87-22.22c9.11-5.12,19.46-7.68,29.9-7.48
		c6.86-0.31,13.72,0.72,20.17,3.07c1.13,0.41,2.15,1.23,2.76,2.25s0.92,2.25,0.92,3.48v26.21c0.1,1.54-0.41,2.97-1.54,3.99
		c-1.33,1.02-3.07,1.23-4.51,0.41c-3.69-1.43-7.58-2.15-11.57-2.05C-1921.56-498.93-1926.68-496.58-1929.96-492.28z"/>
</g>
</svg>
